<svg width="26" height="26" viewBox="0 0 26 26" fill="none" xmlns="http://www.w3.org/2000/svg">
<path d="M11.8354 17.7123L17.875 11.6727L16.7104 10.5081L11.8354 15.3831L9.28957 12.8373L8.12499 14.0019L11.8354 17.7123ZM12.9729 23.779C11.6368 23.779 10.3774 23.5262 9.19478 23.0206C8.01214 22.5151 6.98298 21.8245 6.10728 20.9488C5.23159 20.0731 4.53645 19.0439 4.02187 17.8613C3.50728 16.6786 3.24999 15.4102 3.24999 14.0561C3.24999 12.7199 3.50728 11.4606 4.02187 10.2779C4.53645 9.09529 5.23159 8.06161 6.10728 7.17689C6.98298 6.29217 8.01214 5.59703 9.19478 5.09147C10.3774 4.58592 11.6368 4.33314 12.9729 4.33314C14.309 4.33314 15.5684 4.58592 16.751 5.09147C17.9337 5.59703 18.9674 6.29217 19.8521 7.17689C20.7368 8.06161 21.4319 9.09529 21.9375 10.2779C22.443 11.4606 22.6958 12.7199 22.6958 14.0561C22.6958 15.4102 22.443 16.6786 21.9375 17.8613C21.4319 19.0439 20.7368 20.0731 19.8521 20.9488C18.9674 21.8245 17.9337 22.5151 16.751 23.0206C15.5684 23.5262 14.309 23.779 12.9729 23.779ZM2.49166 7.93522L1.35416 6.79772L5.79582 2.51855L6.93332 3.65605L2.49166 7.93522ZM23.4542 7.93522L19.0125 3.65605L20.15 2.51855L24.5917 6.79772L23.4542 7.93522ZM12.9729 22.154C15.2299 22.154 17.1437 21.3686 18.7146 19.7977C20.2854 18.2269 21.0708 16.313 21.0708 14.0561C21.0708 11.7991 20.2854 9.88522 18.7146 8.31439C17.1437 6.74355 15.2299 5.95814 12.9729 5.95814C10.716 5.95814 8.80207 6.74355 7.23124 8.31439C5.66041 9.88522 4.87499 11.7991 4.87499 14.0561C4.87499 16.313 5.66041 18.2269 7.23124 19.7977C8.80207 21.3686 10.716 22.154 12.9729 22.154Z" fill="#AAAAAA"/>
</svg>
