<svg width="38" height="29" viewBox="0 0 38 29" fill="none" xmlns="http://www.w3.org/2000/svg">
<path d="M32.1948 2.41962C29.6953 1.27473 27.0661 0.448514 24.3544 0C24.0125 0.601954 23.6235 1.41636 23.3523 2.06553C20.4755 1.64062 17.5398 1.64062 14.663 2.06553C14.3565 1.35735 14.0146 0.672772 13.6373 0C10.9256 0.460317 8.28462 1.27473 5.78513 2.43142C0.833315 9.82011 -0.510749 17.0317 0.161283 24.1372C3.06163 26.2971 6.31568 27.9377 9.78195 29C10.5601 27.9377 11.2557 26.8282 11.8452 25.6479C10.7252 25.223 9.64047 24.7037 8.60295 24.1018C8.87412 23.9011 9.1335 23.6886 9.38109 23.488C15.4765 26.3679 22.5388 26.3679 28.6224 23.488C28.8818 23.7004 29.153 23.9129 29.4124 24.1018C28.3748 24.7155 27.2902 25.2348 26.1583 25.6597C26.7478 26.8282 27.4434 27.9495 28.2216 29C31.6878 27.9495 34.9419 26.3089 37.8422 24.1372C38.6204 15.9105 36.4864 8.75784 32.183 2.43142L32.1948 2.41962ZM12.6823 19.77C10.8077 19.77 9.26319 18.0468 9.26319 15.9341C9.26319 13.8213 10.7723 12.0863 12.6823 12.0863C14.5923 12.0863 16.1132 13.8095 16.1014 15.9223C16.0896 18.035 14.5923 19.77 12.6823 19.77ZM25.3094 19.77C23.4348 19.77 21.8903 18.0468 21.8903 15.9341C21.8903 13.8213 23.3994 12.0863 25.3094 12.0863C27.2194 12.0863 28.7403 13.8095 28.7285 15.9223C28.7168 18.035 27.2194 19.77 25.3094 19.77Z" fill="white"/>
</svg>
