<svg width="20" height="20" viewBox="0 0 20 20" fill="none" xmlns="http://www.w3.org/2000/svg">
<path d="M9.43758 10.9795H10.6876V5.70866H9.43758V10.9795ZM10.0001 14.167C10.1945 14.167 10.3577 14.101 10.4897 13.9691C10.6216 13.8371 10.6876 13.6739 10.6876 13.4795C10.6876 13.285 10.6216 13.1219 10.4897 12.9899C10.3577 12.858 10.1945 12.792 10.0001 12.792C9.80564 12.792 9.64244 12.858 9.5105 12.9899C9.37855 13.1219 9.31258 13.285 9.31258 13.4795C9.31258 13.6739 9.37855 13.8371 9.5105 13.9691C9.64244 14.101 9.80564 14.167 10.0001 14.167ZM10.0001 18.3337C8.81953 18.3337 7.7223 18.1219 6.70841 17.6982C5.69453 17.2746 4.81258 16.6878 4.06258 15.9378C3.31258 15.1878 2.72578 14.3059 2.30216 13.292C1.87855 12.2781 1.66675 11.1809 1.66675 10.0003C1.66675 8.83366 1.87855 7.74338 2.30216 6.72949C2.72578 5.7156 3.31258 4.83366 4.06258 4.08366C4.81258 3.33366 5.69453 2.74338 6.70841 2.31283C7.7223 1.88227 8.81953 1.66699 10.0001 1.66699C11.1667 1.66699 12.257 1.88227 13.2709 2.31283C14.2848 2.74338 15.1667 3.33366 15.9167 4.08366C16.6667 4.83366 17.257 5.7156 17.6876 6.72949C18.1181 7.74338 18.3334 8.83366 18.3334 10.0003C18.3334 11.1809 18.1181 12.2781 17.6876 13.292C17.257 14.3059 16.6667 15.1878 15.9167 15.9378C15.1667 16.6878 14.2848 17.2746 13.2709 17.6982C12.257 18.1219 11.1667 18.3337 10.0001 18.3337ZM10.0001 17.0837C11.9445 17.0837 13.6112 16.3892 15.0001 15.0003C16.389 13.6114 17.0834 11.9448 17.0834 10.0003C17.0834 8.05588 16.389 6.38921 15.0001 5.00033C13.6112 3.61144 11.9445 2.91699 10.0001 2.91699C8.05564 2.91699 6.38897 3.61144 5.00008 5.00033C3.61119 6.38921 2.91675 8.05588 2.91675 10.0003C2.91675 11.9448 3.61119 13.6114 5.00008 15.0003C6.38897 16.3892 8.05564 17.0837 10.0001 17.0837Z" fill="#111111"/>
</svg>
