<svg width="43" height="31" viewBox="0 0 43 31" fill="none" xmlns="http://www.w3.org/2000/svg">
<path d="M42.9981 17.8782C42.7349 18.0029 42.7215 18.2848 42.61 18.5034C41.5785 20.5326 39.2867 21.3113 37.2619 20.266C36.8163 20.0359 36.5089 19.9898 36.0517 20.2411C32.0349 22.4352 28.0065 24.6082 23.9686 26.762C23.4768 27.0248 23.2194 27.324 23.1176 27.8955C22.8102 29.6255 21.4021 30.8204 19.5906 30.9872C18.023 31.133 16.2768 30.0148 15.7409 28.4115C15.5392 27.8111 15.2318 27.4717 14.6786 27.1917C10.996 25.3178 7.37488 23.3194 3.6462 21.5434C0.684002 20.1298 -0.760597 15.6611 0.401614 12.7439C0.753158 11.8617 1.3333 11.1674 2.20544 10.732C9.11531 7.28549 16.0252 3.83897 22.9312 0.382865C24.0185 -0.161826 25.0578 -0.108124 26.1239 0.434649C30.7132 2.7726 35.4139 4.87273 40.0762 7.05534C40.2491 7.13589 40.4201 7.21836 40.593 7.29891C40.9829 7.48303 41.3153 7.71702 41.3402 8.19842C41.3691 8.73928 41.0002 8.97135 40.5872 9.18615C37.9631 10.546 35.3409 11.9134 32.7168 13.2733C28.6827 15.3657 24.6313 17.4275 20.6183 19.5602C19.3831 20.2181 18.3246 20.2814 17.0472 19.5852C12.8882 17.3239 8.6658 15.1758 4.46839 12.9856C3.46178 12.4601 2.87203 12.6921 2.48015 13.7642C1.75016 15.7512 2.78559 18.4497 4.65473 19.4317C8.11639 21.2461 11.5838 23.0547 15.0397 24.8786C15.5315 25.1376 15.8657 25.3006 16.2807 24.6734C17.4621 22.8936 20.772 22.6462 22.1724 24.3474C22.5259 24.777 22.8025 24.7118 23.2117 24.4912C27.0479 22.4314 30.89 20.3811 34.7358 18.3404C35.168 18.1103 35.3909 17.9146 35.2833 17.3297C34.8703 15.0915 36.5166 13.3059 38.7776 13.0354C41.1923 12.7477 42.1797 14.1517 43 15.9679V17.8763L42.9981 17.8782ZM40.3528 16.7083C40.3336 16.0236 39.717 15.4424 39.0408 15.4731C38.3742 15.5019 37.8037 16.1367 37.8306 16.8176C37.8575 17.5138 38.4626 18.0796 39.1445 18.047C39.8284 18.0144 40.3721 17.4102 40.3528 16.7083V16.7083ZM19.4004 28.3673C20.0881 28.3424 20.6471 27.744 20.626 27.0536C20.603 26.3497 20.0363 25.8338 19.3082 25.8549C18.5782 25.876 18.073 26.4168 18.098 27.1475C18.1229 27.8591 18.6915 28.3923 19.4004 28.3673V28.3673Z" fill="white"/>
</svg>
