<svg width="37" height="33" viewBox="0 0 37 33" fill="none" xmlns="http://www.w3.org/2000/svg">
<path d="M2.20145 18.8433L2.33092 18.6416L10.1379 6.53852C10.252 6.36133 10.5203 6.37965 10.6066 6.57213C11.9109 9.46879 13.0363 13.0713 12.509 15.3141C12.284 16.2369 11.6673 17.4866 10.9735 18.6416C10.8841 18.8097 10.7854 18.9747 10.6806 19.1335C10.6313 19.2069 10.548 19.2497 10.4586 19.2497H2.42959C2.21376 19.2497 2.08735 19.0174 2.20145 18.8433Z" fill="white"/>
<path d="M37 21.0925V23.0083C37 23.1183 36.9322 23.2161 36.8335 23.2589C36.2292 23.5155 34.1603 24.4566 33.3 25.6422C31.1047 28.6703 29.4274 33 25.678 33H10.0362C4.49244 33 0 28.5328 0 23.0205V22.8433C0 22.6967 0.120223 22.5775 0.268236 22.5775H8.98794C9.16057 22.5775 9.28697 22.7364 9.27161 22.9044C9.20991 23.4666 9.31476 24.0411 9.583 24.5636C10.101 25.6056 11.174 26.2564 12.3333 26.2564H16.65V22.9167H12.3826C12.1638 22.9167 12.0343 22.6661 12.1607 22.4889C12.2069 22.4186 12.2594 22.3453 12.3148 22.2628C12.7188 21.6945 13.2953 20.8114 13.8688 19.8061C14.2604 19.1278 14.6396 18.4036 14.9449 17.6764C15.0066 17.545 15.0559 17.4105 15.1052 17.2791C15.1885 17.0469 15.2749 16.83 15.3365 16.6131C15.3982 16.4297 15.4475 16.2372 15.4968 16.0569C15.6418 15.4397 15.7034 14.7858 15.7034 14.1075C15.7034 13.8417 15.6911 13.5636 15.6664 13.2978C15.6541 13.0075 15.6171 12.7172 15.5801 12.4269C15.5554 12.1703 15.5092 11.9166 15.4598 11.6508C15.3982 11.2628 15.3118 10.8778 15.2132 10.4897L15.1792 10.3431C15.1052 10.0772 15.0436 9.82362 14.9573 9.55781C14.7137 8.72359 14.4331 7.91084 14.1371 7.15002C14.0292 6.8475 13.9058 6.55723 13.7825 6.26697C13.6006 5.83002 13.4156 5.43281 13.246 5.05695C13.1597 4.88582 13.0857 4.72998 13.0117 4.57111C12.9284 4.39082 12.8421 4.21053 12.7557 4.03947C12.6941 3.90807 12.6232 3.78584 12.5738 3.66361L12.0466 2.69805C11.9726 2.56666 12.0959 2.41082 12.2408 2.45055L15.54 3.33664H15.5493C15.5554 3.33664 15.5585 3.33973 15.5616 3.33973L15.9963 3.45887L16.4743 3.59336L16.65 3.64219V1.69889C16.65 0.76082 17.4085 0 18.3459 0C18.8145 0 19.24 0.189446 19.5453 0.498033C19.8505 0.806679 20.0417 1.22834 20.0417 1.69889V4.58336L20.3932 4.68109C20.4209 4.69031 20.4487 4.7025 20.4733 4.72082C20.5597 4.785 20.683 4.87969 20.8402 4.99586C20.9636 5.09359 21.0962 5.21279 21.2565 5.33502C21.5741 5.58859 21.9533 5.91555 22.3696 6.29141C22.4806 6.38611 22.5885 6.48389 22.6872 6.58168C23.2237 7.07668 23.8249 7.65721 24.3984 8.29889C24.5588 8.47918 24.716 8.6625 24.8763 8.85498C25.0367 9.05055 25.2063 9.24303 25.3542 9.43557C25.5485 9.69223 25.7582 9.95805 25.9401 10.2361C26.0264 10.3675 26.1251 10.5019 26.2083 10.6333C26.4427 10.9847 26.6493 11.3484 26.8466 11.712C26.9299 11.88 27.0162 12.0633 27.0902 12.2436C27.3091 12.7294 27.4818 13.2244 27.5927 13.7194C27.6267 13.8264 27.6513 13.9425 27.6637 14.0464V14.0709C27.7007 14.2175 27.713 14.3733 27.7253 14.5322C27.7747 15.0394 27.75 15.5466 27.639 16.0569C27.5927 16.2739 27.5311 16.4786 27.4571 16.6956C27.3831 16.9033 27.3091 17.1203 27.2135 17.325C27.0285 17.7497 26.8096 18.1744 26.5506 18.5717C26.4673 18.7183 26.3687 18.8742 26.27 19.0209C26.1621 19.1766 26.0511 19.3233 25.9524 19.467C25.8168 19.6503 25.6719 19.8428 25.5239 20.0139C25.3913 20.1942 25.2556 20.3745 25.1076 20.5333C24.901 20.7747 24.7037 21.0039 24.4971 21.2239C24.3738 21.3675 24.2412 21.5142 24.1055 21.6456C23.973 21.7922 23.8372 21.9236 23.7139 22.0458C23.5074 22.2506 23.3347 22.4094 23.1897 22.5408L22.8506 22.8495C22.8013 22.8922 22.7365 22.9167 22.6687 22.9167H20.0417V26.2564H23.347C24.087 26.2564 24.79 25.9967 25.3574 25.52C25.5516 25.3519 26.3995 24.6247 27.4016 23.5278C27.4355 23.4911 27.4787 23.4636 27.528 23.4514L36.6578 20.8359C36.8274 20.787 37 20.9153 37 21.0925Z" fill="white"/>
</svg>
