<svg width="37" height="30" viewBox="0 0 37 30" fill="none" xmlns="http://www.w3.org/2000/svg">
<path d="M36.8365 3.59988C35.6659 4.12546 34.3662 4.43911 33.0923 4.65104C33.6948 4.54932 34.5814 3.4812 34.9343 3.04039C35.4765 2.37917 35.9241 1.62471 36.1737 0.810903C36.2081 0.751564 36.234 0.666792 36.1737 0.61593C36.0962 0.582021 36.036 0.598975 35.9757 0.632884C34.5642 1.37887 33.101 1.92141 31.5431 2.30288C31.4139 2.33679 31.3193 2.30288 31.2332 2.22658C31.1041 2.08247 30.9836 1.94684 30.8459 1.83664C30.1917 1.28562 29.4859 0.861766 28.6941 0.539635C27.6526 0.124256 26.5165 -0.0537636 25.3975 0.0140534C24.3044 0.0818705 23.2371 0.387047 22.2731 0.887198C21.3005 1.38735 20.4398 2.08247 19.7512 2.91323C19.0368 3.7779 18.5118 4.80363 18.245 5.8887C17.9868 6.93139 18.004 7.9656 18.1675 9.02524C18.1933 9.20326 18.1675 9.22021 18.0126 9.20326C11.9101 8.31316 6.86631 6.16845 2.76069 1.56537C2.57994 1.36192 2.48526 1.36192 2.33894 1.58232C0.548652 4.22719 1.41798 8.48271 3.65584 10.5766C3.95709 10.8563 4.25834 11.136 4.59402 11.3904C4.47352 11.4158 2.98448 11.2547 1.65037 10.5766C1.46962 10.4664 1.38355 10.5257 1.36633 10.7291C1.34912 11.0174 1.36633 11.2802 1.41798 11.5853C1.76226 14.2726 3.64723 16.7564 6.23799 17.7228C6.54785 17.8499 6.88353 17.9601 7.21921 18.0195C6.63392 18.1466 6.02281 18.2399 4.3358 18.1042C4.12923 18.0619 4.04316 18.1721 4.12923 18.367C5.39449 21.7748 8.14017 22.7921 10.1887 23.3685C10.4641 23.4194 10.7395 23.4194 11.015 23.4787C10.9978 23.5042 10.9805 23.5042 10.9633 23.5296C10.2834 24.5553 7.92499 25.3098 6.82328 25.6913C4.82641 26.3779 2.6488 26.6916 0.540045 26.4881C0.204365 26.4373 0.126901 26.4457 0.0408289 26.4881C-0.0538499 26.5475 0.0322217 26.6238 0.135508 26.7085C0.565866 26.9883 0.996224 27.2341 1.4438 27.4715C2.78651 28.1751 4.18088 28.7261 5.64409 29.1245C13.2012 31.176 21.7051 29.667 27.3772 24.123C31.8271 19.7658 33.3936 13.7555 33.3936 7.73672C33.3936 7.49936 33.6776 7.3722 33.8412 7.24504C35.0031 6.38885 35.9327 5.36312 36.802 4.21871C37 3.96439 37 3.73551 37 3.64226V3.60836C37 3.51511 37 3.54054 36.8451 3.60836L36.8365 3.59988Z" fill="white"/>
</svg>
