<svg width="1226" height="153" viewBox="0 0 1226 153" fill="none" xmlns="http://www.w3.org/2000/svg">
<path opacity="0.1" d="M48.2374 85.756H47.2674V149H0.707383V3.49999H47.2674V62.864H48.2374C48.3667 60.536 48.6254 58.4667 49.0134 56.656C49.4014 54.716 49.9187 53.0347 50.5654 51.612L73.2634 3.49999H123.703L88.7834 74.892L124.867 149H74.4274L50.5654 96.814C49.9187 95.3913 49.4014 93.7747 49.0134 91.964C48.6254 90.1533 48.3667 88.084 48.2374 85.756ZM231.939 111.752H185.379V3.49999H138.819V149H231.939V111.752ZM284.687 125.914H323.099L328.531 149H377.613L339.977 3.49999H268.003L230.367 149H279.449L284.687 125.914ZM305.251 48.12L314.563 88.86H293.223L302.729 48.12H305.251ZM433.146 3.49999L475.05 109.424V149H521.61V109.424L563.514 3.49999H512.104L499.106 54.716H497.36L484.556 3.49999H433.146ZM726.411 111.752H679.851V3.49999H633.291V149H726.411V111.752ZM785.756 149V3.49999H739.196V149H785.756ZM802.12 76.444C802.12 63.1227 803.219 51.6767 805.418 42.106C807.746 32.406 811.561 24.452 816.864 18.244C822.296 12.036 829.409 7.44465 838.204 4.46999C846.999 1.49533 857.863 0.0079987 870.796 0.0079987C883.859 0.0079987 894.723 1.49533 903.388 4.46999C912.183 7.44465 919.231 12.036 924.534 18.244C929.966 24.452 933.781 32.406 935.98 42.106C938.308 51.6767 939.472 63.1227 939.472 76.444C939.472 89.1187 938.437 100.241 936.368 109.812C934.299 119.253 930.613 127.143 925.31 133.48C920.137 139.817 913.088 144.603 904.164 147.836C895.369 150.94 884.247 152.492 870.796 152.492C857.345 152.492 846.158 150.94 837.234 147.836C828.439 144.603 821.391 139.817 816.088 133.48C810.915 127.143 807.293 119.253 805.224 109.812C803.155 100.241 802.12 89.1187 802.12 76.444ZM852.172 52.194V112.722H871.572C878.039 112.722 882.63 112.011 885.346 110.588C888.191 109.036 889.614 105.609 889.614 100.306V39.778H870.02C863.812 39.778 859.285 40.554 856.44 42.106C853.595 43.5287 852.172 46.8913 852.172 52.194ZM1084.94 149H1041.1L1005.6 97.396C1004.95 96.4907 1004.43 95.1327 1004.05 93.322C1003.66 91.5113 1003.4 89.1187 1003.27 86.144H1002.3V149H955.741V3.49999H999.585L1035.09 55.104C1035.73 56.0093 1036.25 57.3673 1036.64 59.178C1037.03 60.9887 1037.29 63.3813 1037.41 66.356H1038.38V3.49999H1084.94V149ZM1102.43 146.478L1109.03 108.066C1123.25 111.558 1136.12 113.304 1147.63 113.304C1153.45 113.304 1158.56 113.239 1162.96 113.11C1167.49 112.851 1171.49 112.463 1174.99 111.946V100.306L1154.03 98.56C1144.59 97.6547 1136.7 96.1027 1130.37 93.904C1124.03 91.7053 1118.92 88.7307 1115.04 84.98C1111.29 81.1 1108.57 76.5087 1106.89 71.206C1105.34 65.774 1104.56 59.4367 1104.56 52.194C1104.56 42.2353 1105.6 33.958 1107.67 27.362C1109.74 20.6367 1113.04 15.2693 1117.56 11.26C1122.09 7.12133 1127.91 4.21132 1135.02 2.52999C1142.27 0.848662 1151.06 0.0079987 1161.41 0.0079987C1181.97 0.0079987 1200.59 1.948 1217.28 5.82799L1211.46 43.076C1196.97 40.748 1185.4 39.584 1176.73 39.584C1168.07 39.584 1160.7 39.972 1154.62 40.748V52.194L1171.3 53.746C1181.52 54.7807 1190.05 56.5267 1196.91 58.984C1203.76 61.312 1209.26 64.416 1213.4 68.296C1217.67 72.176 1220.64 76.7673 1222.32 82.07C1224.13 87.3727 1225.04 93.4513 1225.04 100.306C1225.04 110.135 1223.75 118.413 1221.16 125.138C1218.57 131.863 1215.47 136.972 1211.85 140.464C1208.87 143.309 1205.19 145.573 1200.79 147.254C1196.39 148.806 1191.74 149.97 1186.82 150.746C1181.91 151.522 1176.93 151.975 1171.88 152.104C1166.97 152.363 1162.51 152.492 1158.5 152.492C1148.41 152.492 1138.71 151.975 1129.4 150.94C1120.08 149.905 1111.1 148.418 1102.43 146.478Z" fill="white"/>
</svg>
