<svg width="307" height="304" viewBox="0 0 307 304" fill="none" xmlns="http://www.w3.org/2000/svg">
<path fill-rule="evenodd" clip-rule="evenodd" d="M66.9104 303.84V294.206H67.3483V303.84H66.9104Z" fill="#7C7C7C"/>
<path fill-rule="evenodd" clip-rule="evenodd" d="M189.907 303.84V294.206H190.345V303.84H189.907Z" fill="#7C7C7C"/>
<path fill-rule="evenodd" clip-rule="evenodd" d="M250.914 303.84V294.206H251.351V303.84H250.914Z" fill="#7C7C7C"/>
<path d="M4.23291 294.878H0V300.617H4.23291V294.878ZM0.939524 299.858V295.617H3.28328V299.858H0.939524ZM5.74827 302.836H6.708V298.25H8.16274V297.461H6.708V294H5.74827V302.836Z" fill="white"/>
<path d="M16.0931 294H15.1334V302.856H16.0931V294ZM8.91032 297.757C8.91032 299.666 9.8852 300.869 11.2541 300.864C12.5977 300.869 13.5877 299.666 13.5877 297.757C13.5877 295.869 12.5977 294.666 11.2541 294.661C9.8852 294.666 8.91032 295.869 8.91032 297.757ZM9.83974 297.757C9.83469 296.372 10.4105 295.504 11.2541 295.499C12.0825 295.504 12.6583 296.372 12.6583 297.757C12.6583 299.163 12.0825 300.025 11.2541 300.025C10.4105 300.025 9.83469 299.163 9.83974 297.757Z" fill="white"/>
<path d="M25.0237 294H24.074V299.246H25.0237V294ZM18.0934 298.546H18.841C20.4372 298.556 21.806 298.457 23.2961 298.152L23.1648 297.383C21.7959 297.664 20.518 297.757 19.0531 297.767V294.572H18.0934V298.546ZM18.9016 301.081C18.9016 302.17 20.0886 302.821 21.9929 302.816C23.8821 302.821 25.059 302.17 25.0641 301.081C25.059 299.966 23.8821 299.311 21.9929 299.315C20.0886 299.311 18.9016 299.966 18.9016 301.081ZM19.8714 301.081C19.8613 300.43 20.6544 300.075 21.9929 300.075C23.3164 300.075 24.0993 300.43 24.1043 301.081C24.0993 301.702 23.3164 302.072 21.9929 302.067C20.6544 302.072 19.8613 301.702 19.8714 301.081Z" fill="white"/>
<path d="M33.9542 294.227H27.2361V294.937H28.5595V296.436H27.2765V297.156H33.9138V296.436H32.6409V294.937H33.9542V294.227ZM26.4784 298.546H30.1153V299.306H27.4684V300.006H32.7419V300.666H27.4785V302.747H33.9441V302.037H28.4181V301.327H33.6915V299.306H31.075V298.546H34.7321V297.797H26.4784V298.546ZM29.5091 296.436V294.937H31.6811V296.436H29.5091Z" fill="white"/>
<path d="M38.0962 300.607H41.6522V301.998H42.7029V300.607H43.703V299.69H42.7029V294.858H41.3289L38.0962 299.73V300.607ZM39.2681 299.69V299.631L41.5714 296.15H41.6522V299.69H39.2681Z" fill="white"/>
<path d="M47.3702 302.096C49.0623 302.096 50.0524 300.765 50.0574 298.428C50.0524 296.105 49.0472 294.759 47.3702 294.759C45.6881 294.759 44.6829 296.105 44.6829 298.428C44.6829 300.765 45.678 302.096 47.3702 302.096ZM45.7942 298.428C45.7942 296.653 46.3852 295.681 47.3702 295.676C48.3501 295.681 48.9462 296.653 48.9462 298.428C48.9462 300.208 48.3552 301.16 47.3702 301.16C46.3801 301.16 45.7892 300.208 45.7942 298.428Z" fill="white"/>
<path d="M52.8861 298.25C53.8711 298.26 54.4166 297.54 54.4217 296.475C54.4166 295.43 53.8913 294.705 52.8861 294.71C51.9112 294.705 51.3404 295.43 51.3505 296.475C51.3404 297.535 51.886 298.26 52.8861 298.25ZM52.1789 301.998H53.0982L58.1191 294.858H57.1998L52.1789 301.998ZM52.1789 296.475C52.184 295.839 52.4163 295.41 52.8861 295.4C53.3761 295.395 53.5832 295.834 53.5832 296.475C53.5832 297.131 53.3609 297.555 52.8861 297.56C52.4163 297.555 52.184 297.131 52.1789 296.475ZM55.9673 300.371C55.9623 301.421 56.5078 302.146 57.5029 302.146C58.4879 302.146 59.0334 301.426 59.0385 300.371C59.0334 299.315 58.503 298.591 57.5029 298.596C56.528 298.591 55.9623 299.315 55.9673 300.371ZM56.7957 300.371C56.8008 299.725 57.0382 299.296 57.5029 299.286C57.9929 299.286 58.2 299.72 58.2 300.371C58.2 301.017 57.9777 301.446 57.5029 301.446C57.0331 301.446 56.8008 301.017 56.7957 300.371Z" fill="white"/>
<path d="M79.4133 295.04H75.2777V295.858H78.4578C78.4224 296.399 78.3364 296.919 78.1949 297.407L74.8126 297.63L74.9642 298.501L77.9016 298.209C77.3506 299.419 76.3697 300.443 74.7822 301.292L75.3181 302.056C78.5387 300.337 79.4083 297.842 79.4133 295.04ZM79.3931 298.67H81.3851V303.585H82.3356V294.074H81.3851V297.842H79.3931V298.67Z" fill="white"/>
<path d="M92.0224 299.509H83.7309V300.337H85.7937V303.638H86.7543V300.337H89.0294V303.638H89.99V300.337H92.0224V299.509ZM84.7724 298.32H90.9809V294.573H84.7724V298.32ZM85.7128 297.513V295.38H90.0203V297.513H85.7128Z" fill="white"/>
<path d="M100.213 294.074H99.2522V303.585H100.213V294.074ZM93.2459 301.165H94.0043C95.4351 301.17 96.8911 301.053 98.4938 300.708L98.3624 299.859C96.9114 300.167 95.521 300.289 94.1964 300.294V294.998H93.2459V301.165Z" fill="white"/>
<path d="M106.674 294.913H102.195V301.335H102.933C104.642 301.329 105.885 301.282 107.321 301.037L107.22 300.22C105.875 300.448 104.728 300.507 103.145 300.517V298.384H106.33V297.577H103.145V295.741H106.674V294.913ZM108.201 303.585H109.172V294.074H108.201V303.585Z" fill="white"/>
<path d="M113.702 294.637H112.741L110.385 303.84H111.346L113.702 294.637Z" fill="white"/>
<path d="M116.947 295.9V294.669H116.017V295.9C116.017 296.956 115.36 298.166 114.136 298.724L114.662 299.509C115.542 299.111 116.159 298.347 116.492 297.466C116.816 298.246 117.407 298.893 118.252 299.233L118.757 298.458C117.579 297.991 116.947 296.94 116.947 295.9ZM115.805 301.844C115.795 302.927 116.973 303.569 118.869 303.564C120.759 303.569 121.948 302.927 121.953 301.844C121.948 300.762 120.759 300.119 118.869 300.114C116.973 300.119 115.795 300.762 115.805 301.844ZM116.755 301.844C116.745 301.234 117.549 300.884 118.869 300.889C120.183 300.884 120.987 301.234 120.992 301.844C120.987 302.449 120.183 302.8 118.869 302.789C117.549 302.8 116.745 302.449 116.755 301.844ZM119.04 299.636H119.93V297.386H120.992V299.934H121.902V294.085H120.992V296.558H119.93V294.255H119.04V299.636Z" fill="white"/>
<path d="M127.099 295.136H123.469V301.292H124.076C125.522 301.292 126.402 301.25 127.463 301.048L127.383 300.22C126.427 300.39 125.618 300.432 124.389 300.443V298.437H126.948V297.641H124.389V295.942H127.099V295.136ZM127.989 303.118H128.909V298.67H130.001V303.585H130.922V294.074H130.001V297.853H128.909V294.255H127.989V303.118Z" fill="white"/>
<path d="M139.86 294.074H138.95V303.585H139.86V294.074ZM132.024 300.836L132.59 301.558C134.299 300.491 135.264 299.1 135.704 297.503H137.1V299.053H135.553V299.88H137.1V303.118H138.01V294.318H137.1V296.675H135.881C135.952 296.213 135.987 295.741 135.987 295.253H132.469V296.08H135.037C134.87 298.039 133.95 299.636 132.024 300.836Z" fill="white"/>
<path d="M148.152 294.085H147.191V300.486H148.152V297.736H149.446V296.908H148.152V294.085ZM140.962 299.424L141.063 300.231C142.661 300.231 144.81 300.215 146.756 299.859L146.675 299.137C145.917 299.254 145.098 299.323 144.289 299.366V298.761C145.31 298.633 145.952 298.124 145.957 297.365C145.952 296.494 145.103 295.953 143.804 295.964C142.504 295.953 141.64 296.494 141.65 297.365C141.64 298.129 142.297 298.639 143.328 298.761V299.403C142.479 299.424 141.665 299.424 140.962 299.424ZM141.195 295.645H146.423V294.892H144.289V294H143.328V294.892H141.195V295.645ZM142.095 301.717H147.191V303.585H148.152V300.931H142.095V301.717ZM142.56 297.365C142.56 296.908 143.03 296.643 143.804 296.654C144.567 296.643 145.042 296.908 145.037 297.365C145.042 297.811 144.567 298.103 143.804 298.097C143.03 298.103 142.56 297.811 142.56 297.365Z" fill="white"/>
<path d="M153.137 295.826V295.571H155.088V294.754H150.184V295.571H152.176V295.836C152.171 297.158 151.317 298.384 149.901 298.872L150.396 299.679C151.483 299.281 152.277 298.458 152.671 297.418C153.071 298.32 153.824 299.037 154.856 299.382L155.311 298.596C153.935 298.14 153.132 297.036 153.137 295.826ZM151.124 301.781C151.124 302.911 152.282 303.569 154.168 303.564C156.034 303.569 157.171 302.911 157.171 301.781C157.171 300.666 156.034 300.013 154.168 300.018C152.282 300.013 151.124 300.666 151.124 301.781ZM152.085 301.781C152.08 301.16 152.859 300.809 154.168 300.815C155.467 300.809 156.236 301.16 156.231 301.781C156.236 302.417 155.467 302.773 154.168 302.768C152.859 302.773 152.08 302.417 152.085 301.781ZM156.13 299.785H157.09V297.259H158.405V296.431H157.09V294.074H156.13V299.785Z" fill="white"/>
<path d="M161.762 302.683H166.686V301.685H163.309V301.621L164.795 300.04C166.17 298.623 166.555 297.938 166.565 297.078C166.555 295.831 165.579 294.892 164.168 294.892C162.773 294.892 161.752 295.82 161.762 297.227H162.813C162.818 296.41 163.334 295.868 164.148 295.868C164.917 295.868 165.503 296.351 165.503 297.11C165.503 297.784 165.104 298.272 164.3 299.148L161.762 301.834V302.683Z" fill="white"/>
<path d="M170.407 302.789C171.934 302.789 173.016 301.701 173.016 300.188C173.016 298.708 172 297.636 170.619 297.63C170.063 297.636 169.548 297.842 169.244 298.15H169.174L169.416 295.996H172.642V294.998H168.496L168.021 299.275H169.072C169.32 298.803 169.77 298.596 170.357 298.596C171.277 298.607 171.934 299.286 171.934 300.22C171.934 301.133 171.297 301.807 170.407 301.812C169.669 301.807 169.072 301.329 169.012 300.677H167.93C167.98 301.903 169.022 302.789 170.407 302.789Z" fill="white"/>
<path d="M175.878 298.649C176.863 298.66 177.409 297.885 177.414 296.739C177.409 295.613 176.884 294.833 175.878 294.839C174.902 294.833 174.33 295.613 174.341 296.739C174.33 297.88 174.876 298.66 175.878 298.649ZM175.17 302.683H176.09L181.115 294.998H180.195L175.17 302.683ZM175.17 296.739C175.175 296.054 175.407 295.592 175.878 295.582C176.368 295.576 176.575 296.049 176.575 296.739C176.575 297.444 176.353 297.901 175.878 297.906C175.407 297.901 175.175 297.444 175.17 296.739ZM178.962 300.931C178.956 302.062 179.502 302.842 180.498 302.842C181.484 302.842 182.03 302.067 182.035 300.931C182.03 299.796 181.5 299.015 180.498 299.021C179.523 299.015 178.956 299.796 178.962 300.931ZM179.791 300.931C179.796 300.236 180.033 299.774 180.498 299.764C180.989 299.764 181.196 300.231 181.196 300.931C181.196 301.627 180.974 302.088 180.498 302.088C180.028 302.088 179.796 301.627 179.791 300.931Z" fill="white"/>
<path d="M198.763 302.077H203.246V301.103H199.891V294.656H198.763V302.077Z" fill="white"/>
<path d="M204.405 302.077H205.534V299.473H207.052C208.776 299.473 209.627 298.433 209.627 297.065C209.627 295.691 208.781 294.656 207.052 294.656H204.405V302.077ZM205.534 298.51V295.619H206.939C208.032 295.625 208.488 296.224 208.488 297.065C208.488 297.9 208.032 298.515 206.939 298.51H205.534Z" fill="white"/>
<path d="M217.988 294H211.166V294.738H212.51V296.296H211.207V297.044H217.947V296.296H216.655V294.738H217.988V294ZM210.397 298.489H214.09V299.279H211.402V300.006H216.757V300.693H211.412V302.856H217.978V302.118H212.366V301.38H217.722V299.279H215.065V298.489H218.778V297.71H210.397V298.489ZM213.474 296.296V294.738H215.68V296.296H213.474Z" fill="white"/>
<path d="M222.359 302.077H227.355V301.113H223.929V301.052L225.437 299.525C226.832 298.156 227.222 297.495 227.232 296.665C227.222 295.461 226.232 294.553 224.801 294.553C223.385 294.553 222.349 295.45 222.359 296.808H223.426C223.431 296.019 223.954 295.496 224.78 295.496C225.56 295.496 226.155 295.963 226.155 296.696C226.155 297.347 225.75 297.818 224.934 298.664L222.359 301.257V302.077Z" fill="white"/>
<path d="M231.192 302.179C232.911 302.179 233.916 300.796 233.921 298.366C233.916 295.953 232.895 294.553 231.192 294.553C229.484 294.553 228.463 295.953 228.463 298.366C228.463 300.796 229.474 302.179 231.192 302.179ZM229.592 298.366C229.592 296.521 230.192 295.512 231.192 295.507C232.187 295.512 232.793 296.521 232.793 298.366C232.793 300.216 232.192 301.206 231.192 301.206C230.187 301.206 229.587 300.216 229.592 298.366Z" fill="white"/>
<path d="M236.794 298.182C237.794 298.192 238.348 297.444 238.353 296.337C238.348 295.25 237.814 294.497 236.794 294.502C235.804 294.497 235.224 295.25 235.234 296.337C235.224 297.439 235.778 298.192 236.794 298.182ZM236.076 302.077H237.009L242.108 294.656H241.174L236.076 302.077ZM236.076 296.337C236.081 295.676 236.317 295.23 236.794 295.22C237.291 295.215 237.502 295.671 237.502 296.337C237.502 297.019 237.276 297.459 236.794 297.464C236.317 297.459 236.081 297.019 236.076 296.337ZM239.923 300.386C239.918 301.477 240.472 302.231 241.482 302.231C242.482 302.231 243.036 301.482 243.042 300.386C243.036 299.289 242.498 298.536 241.482 298.541C240.492 298.536 239.918 299.289 239.923 300.386ZM240.764 300.386C240.769 299.714 241.01 299.268 241.482 299.258C241.98 299.258 242.19 299.709 242.19 300.386C242.19 301.057 241.964 301.503 241.482 301.503C241.005 301.503 240.769 301.057 240.764 300.386Z" fill="white"/>
<path d="M264.064 294.516H259.769V298.78H260.506C262.459 298.785 263.57 298.76 264.861 298.542L264.761 297.788C263.55 297.992 262.509 298.026 260.726 298.026V296.995H263.815V296.261H260.726V295.289H264.064V294.516ZM260.795 302.767H266.664V299.702H260.795V302.767ZM261.732 302.003V300.436H265.738V302.003H261.732ZM265.718 299.286H266.664V294H265.718V299.286Z" fill="white"/>
<path d="M276.22 297.669H268.079V298.423H271.666V299.196H269.056V299.92H274.257V300.595H269.066V302.786H275.443V302.062H269.992V301.279H275.194V299.196H272.613V298.423H276.22V297.669ZM269.126 297.015H275.174V294.278H269.126V297.015ZM270.052 296.271V295.021H274.227V296.271H270.052Z" fill="white"/>
<path d="M285.218 295.319H283.913V294H282.966V299.365H283.913V297.977H285.218V297.193H283.913V296.102H285.218V295.319ZM277.256 295.299H280.395V296.301H277.266V298.879H277.984C279.698 298.889 280.878 298.834 282.258 298.592L282.159 297.828C280.858 298.046 279.762 298.106 278.213 298.106V297.025H281.322V294.536H277.256V295.299ZM278.024 301.229C278.024 302.261 279.165 302.856 281.023 302.856C282.856 302.856 283.992 302.261 283.992 301.229C283.992 300.198 282.856 299.583 281.023 299.583C279.165 299.583 278.024 300.198 278.024 301.229ZM278.95 301.229C278.945 300.654 279.713 300.322 281.023 300.327C282.313 300.322 283.071 300.654 283.066 301.229C283.071 301.81 282.313 302.142 281.023 302.132C279.713 302.142 278.945 301.81 278.95 301.229Z" fill="white"/>
<path d="M291.256 294.853H290.18L288.387 296.023V297.064L290.11 295.944H290.15V302.033H291.256V294.853Z" fill="white"/>
<path d="M295.541 302.132C297.045 302.132 298.112 301.115 298.112 299.702C298.112 298.319 297.11 297.317 295.75 297.312C295.202 297.317 294.694 297.511 294.395 297.798H294.325L294.564 295.785H297.743V294.853H293.658L293.189 298.849H294.226C294.47 298.408 294.913 298.215 295.491 298.215C296.398 298.225 297.045 298.859 297.045 299.732C297.045 300.585 296.418 301.215 295.541 301.219C294.813 301.215 294.226 300.768 294.166 300.158H293.1C293.149 301.304 294.176 302.132 295.541 302.132Z" fill="white"/>
<path d="M300.932 298.264C301.903 298.274 302.441 297.55 302.446 296.479C302.441 295.428 301.923 294.699 300.932 294.704C299.97 294.699 299.407 295.428 299.417 296.479C299.407 297.545 299.945 298.274 300.932 298.264ZM300.234 302.033H301.141L306.093 294.853H305.186L300.234 302.033ZM300.234 296.479C300.239 295.84 300.468 295.408 300.932 295.398C301.415 295.393 301.619 295.835 301.619 296.479C301.619 297.139 301.4 297.565 300.932 297.57C300.468 297.565 300.239 297.139 300.234 296.479ZM303.971 300.396C303.966 301.453 304.504 302.181 305.485 302.181C306.457 302.181 306.995 301.457 307 300.396C306.995 299.335 306.472 298.606 305.485 298.611C304.524 298.606 303.966 299.335 303.971 300.396ZM304.788 300.396C304.793 299.747 305.027 299.315 305.485 299.306C305.969 299.306 306.173 299.742 306.173 300.396C306.173 301.046 305.954 301.477 305.485 301.477C305.022 301.477 304.793 301.046 304.788 300.396Z" fill="white"/>
<path d="M136.889 45.5804C116.005 45.5804 96.9037 53.1776 82.2209 65.7476L118.309 107.551C123.297 103.278 129.792 100.696 136.889 100.696C137.77 100.696 138.64 100.736 139.499 100.815L144.57 45.9265C142.04 45.6974 139.479 45.5804 136.889 45.5804Z" fill="#95CD9A" stroke="white" stroke-miterlimit="10"/>
<path d="M267 129.837C267 174.686 244.22 214.207 209.608 237.453C207.259 239.029 204.071 238.321 202.593 235.909L200.02 231.711L189.395 214.374L181.139 200.901L152.288 153.824C160.42 148.828 165.845 139.843 165.845 129.59C165.845 114.768 154.507 102.595 140.035 101.283L145.089 46.296L146.534 30.5557L148.394 10.3077L148.798 5.90242C149.057 3.08113 151.608 1.0456 154.415 1.4123C217.937 9.67412 266.997 64.0245 266.997 129.837H267Z" fill="url(#paint0_linear_241_136)" stroke="white" stroke-miterlimit="10"/>
<path d="M107.847 129.381C107.847 135.652 109.879 141.449 113.324 146.147L68.7847 178.716L56.034 188.038C43.9887 171.598 36.8767 151.319 36.8767 129.381C36.8767 101.119 48.6777 75.6145 67.623 57.5245C69.6796 55.5605 72.9701 55.7449 74.8248 57.9034L81.7822 65.9987L117.741 107.841C111.683 113.048 107.847 120.767 107.847 129.383V129.381Z" fill="#95CD9A" stroke="white" stroke-miterlimit="10"/>
<path d="M199.361 232.009C181.144 243.186 159.703 249.63 136.756 249.63C98.9281 249.63 65.1979 232.124 43.2555 204.779C41.4824 202.571 41.9263 199.33 44.2131 197.66L56.5047 188.686L69.2602 179.377L113.816 146.85C118.985 153.897 127.334 158.472 136.756 158.472C142.202 158.472 147.289 156.941 151.613 154.288L180.473 201.265L188.733 214.709L199.361 232.009Z" fill="#95CD9A" stroke="white" stroke-miterlimit="10"/>
<path d="M118.461 133.246H119.517V131.493L120.174 130.722L121.936 133.246H123.21L120.913 130.007L123.186 127.369H121.895L119.598 130.072H119.517V127.369H118.461V133.246Z" fill="white"/>
<path d="M123.86 133.246H127.513V132.353H124.915V127.369H123.86V133.246Z" fill="white"/>
<path d="M132.084 129.35H133.147C132.965 128.043 131.962 127.288 130.663 127.288C129.125 127.288 127.972 128.408 127.976 130.308C127.972 132.203 129.112 133.328 130.663 133.328C132.055 133.328 132.985 132.426 133.147 131.298H132.084C131.942 131.988 131.377 132.378 130.679 132.378C129.721 132.378 129.035 131.659 129.039 130.308C129.035 128.976 129.717 128.237 130.679 128.237C131.394 128.237 131.958 128.643 132.084 129.35Z" fill="white"/>
<path d="M142.426 130.429H135.721V131.152H138.7V132.418H139.593V131.152H142.426V130.429ZM136.533 133.823H141.688V133.092H137.426V131.801H136.533V133.823ZM136.597 129.853H141.55V126.865H140.657V127.693H137.49V126.865H136.597V129.853ZM137.49 129.139V128.367H140.657V129.139H137.49Z" fill="white"/>
<path d="M143.993 127.304H143.141V132.191H146.023V127.304H145.187V129H143.993V127.304ZM143.993 131.46V129.715H145.187V131.46H143.993ZM146.745 133.612H147.598V130.21H148.377V133.969H149.246V126.63H148.377V129.463H147.598V126.76H146.745V133.612Z" fill="white"/>
<path d="M156.918 127.677H155.887V126.638H154.985V131.071H155.887V129.975H156.918V129.22H155.887V128.424H156.918V127.677ZM150.374 127.799H152.842V128.513H150.382V130.705H150.983C152.432 130.709 153.39 130.669 154.482 130.47L154.385 129.747C153.386 129.914 152.526 129.958 151.284 129.967V129.195H153.727V127.085H150.374V127.799ZM151.007 132.597C151.003 133.457 151.953 133.953 153.492 133.953C155.006 133.953 155.956 133.457 155.96 132.597C155.956 131.732 155.006 131.213 153.492 131.209C151.953 131.213 151.003 131.732 151.007 132.597ZM151.892 132.597C151.888 132.154 152.465 131.915 153.492 131.915C154.502 131.915 155.067 132.154 155.067 132.597C155.067 133.035 154.502 133.275 153.492 133.271C152.465 133.275 151.888 133.035 151.892 132.597Z" fill="white"/>
<path d="M200.594 105.972H196V112.514H200.594V105.972ZM197.17 111.53V106.934H199.403V111.53H197.17ZM202.065 114.989H203.256V109.873H204.748V108.834H203.256V105H202.065V114.989Z" fill="white"/>
<path d="M213.228 105H212.026V115H213.228V105ZM205.467 109.254C205.462 111.425 206.53 112.79 208.001 112.79C209.455 112.79 210.528 111.425 210.534 109.254C210.528 107.099 209.455 105.729 208.001 105.729C206.53 105.729 205.462 107.099 205.467 109.254ZM206.616 109.254C206.616 107.729 207.179 106.834 208.001 106.834C208.816 106.834 209.375 107.729 209.375 109.254C209.375 110.79 208.816 111.68 208.001 111.685C207.179 111.68 206.616 110.79 206.616 109.254Z" fill="white"/>
<path d="M222.706 105H221.515V110.856H222.706V105ZM215.225 110.182H216.051C217.688 110.193 219.191 110.083 220.785 109.729L220.645 108.735C219.212 109.044 217.876 109.155 216.427 109.166V105.641H215.225V110.182ZM216.115 112.978C216.11 114.227 217.393 114.978 219.432 114.978C221.472 114.978 222.744 114.227 222.749 112.978C222.744 111.707 221.472 110.956 219.432 110.967C217.393 110.956 216.11 111.707 216.115 112.978ZM217.307 112.978C217.302 112.304 218.074 111.956 219.432 111.961C220.785 111.956 221.547 112.304 221.558 112.978C221.547 113.63 220.785 113.994 219.432 113.994C218.074 113.994 217.302 113.63 217.307 112.978Z" fill="white"/>
<path d="M232.184 105.254H224.95V106.171H226.281V107.652H225.003V108.591H232.131V107.652H230.853V106.171H232.184V105.254ZM224.155 110.182H227.966V110.934H225.196V111.829H230.724V112.459H225.207V114.901H232.163V113.983H226.377V113.309H231.894V110.934H229.157V110.182H233V109.21H224.155V110.182ZM227.472 107.652V106.171H229.651V107.652H227.472Z" fill="white"/>
<path d="M86.4072 192.825H82.4823V193.598H85.3575C85.3244 194.006 85.2534 194.393 85.1352 194.758L82.0378 194.93L82.1892 195.747L84.8089 195.523C84.3029 196.447 83.4186 197.22 82 197.886L82.5769 198.617C85.6365 197.186 86.4025 195.166 86.4072 192.825ZM86.3883 195.875H88.1474V199.828H89.1972V192.06H88.1474V195.093H86.3883V195.875Z" fill="white"/>
<path d="M98.2103 196.443H90.3984V197.216H92.271V199.854H93.3302V197.216H95.3258V199.854H96.3756V197.216H98.2103V196.443ZM91.3536 195.54H97.2551V192.455H91.3536V195.54ZM92.3845 194.776V193.212H96.2053V194.776H92.3845Z" fill="white"/>
<path d="M105.909 192.06H104.869V199.828H105.909V192.06ZM99.2696 197.878H100.007C101.336 197.882 102.731 197.792 104.235 197.508L104.102 196.709C102.783 196.95 101.506 197.044 100.31 197.061V192.816H99.2696V197.878Z" fill="white"/>
<path d="M111.924 192.73H107.64V198.024H108.358C109.933 198.024 111.134 197.985 112.482 197.792L112.378 197.018C111.148 197.199 110.08 197.246 108.68 197.25V195.652H111.583V194.896H108.68V193.512H111.924V192.73ZM113.229 199.828H114.288V192.06H113.229V199.828Z" fill="white"/>
<path d="M120.899 192.55H119.849L117.636 200H118.696L120.899 192.55Z" fill="white"/>
<path d="M126.252 193.504V192.541H125.24V193.504C125.235 194.363 124.687 195.334 123.509 195.807L124.077 196.537C124.89 196.228 125.448 195.635 125.76 194.943C126.068 195.545 126.597 196.043 127.359 196.305L127.917 195.575C126.796 195.188 126.257 194.342 126.252 193.504ZM125.079 198.385C125.075 199.282 126.21 199.82 128.011 199.82C129.799 199.82 130.938 199.282 130.943 198.385C130.938 197.491 129.799 196.958 128.011 196.958C126.21 196.958 125.075 197.491 125.079 198.385ZM126.129 198.385C126.124 197.929 126.824 197.68 128.011 197.68C129.179 197.68 129.879 197.929 129.884 198.385C129.879 198.844 129.179 199.093 128.011 199.089C126.824 199.093 126.124 198.844 126.129 198.385ZM128.059 196.589H129.042V194.81H129.893V196.829H130.896V192.069H129.893V194.028H129.042V192.215H128.059V196.589Z" fill="white"/>
<path d="M135.71 192.902H132.267V197.998H132.844C134.178 198.002 135.015 197.972 136.012 197.817L135.927 197.035C135.062 197.156 134.329 197.19 133.27 197.199V195.686H135.558V194.939H133.27V193.667H135.71V192.902ZM136.447 199.45H137.441V195.884H138.32V199.828H139.332V192.06H138.32V195.111H137.441V192.198H136.447V199.45Z" fill="white"/>
<path d="M147.702 192.06H146.7V199.828H147.702V192.06ZM140.24 197.508L140.855 198.187C142.458 197.328 143.347 196.219 143.753 194.93H144.931V196.082H143.597V196.864H144.931V199.459H145.933V192.249H144.931V194.148H143.933C143.995 193.779 144.023 193.396 144.023 193.005H140.694V193.779H142.983C142.822 195.343 142.009 196.559 140.24 197.508Z" fill="white"/>
<path d="M155.467 192.069H154.417V197.319H155.467V195.119H156.621V194.329H155.467V192.069ZM148.619 196.391L148.733 197.139C150.237 197.139 152.237 197.121 154.058 196.829L153.972 196.168C153.287 196.249 152.554 196.301 151.826 196.335V195.888C152.762 195.777 153.348 195.364 153.348 194.758C153.348 194.041 152.53 193.603 151.286 193.607C150.048 193.603 149.22 194.041 149.225 194.758C149.22 195.368 149.825 195.785 150.776 195.893V196.369C150.005 196.387 149.263 196.391 148.619 196.391ZM148.837 193.383H153.745V192.679H151.826V192H150.776V192.679H148.837V193.383ZM149.698 198.402H154.417V199.828H155.467V197.654H149.698V198.402ZM150.237 194.758C150.227 194.419 150.624 194.247 151.286 194.251C151.948 194.247 152.346 194.419 152.346 194.758C152.346 195.081 151.948 195.282 151.286 195.274C150.624 195.282 150.227 195.081 150.237 194.758Z" fill="white"/>
<path d="M160.129 193.461V193.375H161.907V192.602H157.264V193.375H159.07V193.469C159.07 194.501 158.347 195.51 156.97 195.918L157.5 196.675C158.531 196.361 159.25 195.712 159.628 194.896C160.002 195.596 160.683 196.15 161.643 196.425L162.144 195.678C160.806 195.304 160.129 194.41 160.129 193.461ZM158.134 198.333C158.134 199.27 159.24 199.82 161.028 199.82C162.801 199.82 163.889 199.27 163.893 198.333C163.889 197.405 162.801 196.864 161.028 196.864C159.24 196.864 158.134 197.405 158.134 198.333ZM159.184 198.333C159.184 197.86 159.855 197.611 161.028 197.611C162.196 197.611 162.853 197.86 162.853 198.333C162.853 198.814 162.196 199.068 161.028 199.072C159.855 199.068 159.184 198.814 159.184 198.333ZM162.759 196.692H163.808V194.707H165V193.925H163.808V192.06H162.759V196.692Z" fill="white"/>
<path d="M67 115.165H71.7897V114.031H68.3837V107.701H67V115.165Z" fill="white"/>
<path d="M72.8966 115.165H74.2803V112.639H75.7704C77.5479 112.639 78.5005 111.603 78.5058 110.175C78.5005 108.742 77.5585 107.701 75.7917 107.701H72.8966V115.165ZM74.2803 111.536V108.825H75.5788C76.6219 108.825 77.0902 109.376 77.0902 110.175C77.0902 110.964 76.6219 111.531 75.5788 111.536H74.2803Z" fill="white"/>
<path d="M87.1911 107H80.0172V107.856H81.3371V109.237H80.0705V110.113H87.1379V109.237H85.8713V107.856H87.1911V107ZM79.2296 111.598H83.0081V112.299H80.262V113.134H85.7435V113.722H80.2727V116H87.1698V115.144H81.4328V114.515H86.9037V112.299H84.1896V111.598H88V110.691H79.2296V111.598ZM82.5185 109.237V107.856H84.6792V109.237H82.5185Z" fill="white"/>
<path d="M112.097 61.4617H108V65.3507H108.722C110.55 65.3596 111.614 65.3374 112.828 65.1376L112.725 64.3651C111.609 64.5427 110.644 64.5694 109.059 64.5694V63.7791H111.853V63.0067H109.059V62.2608H112.097V61.4617ZM108.966 68.9201H114.591V66.1232H108.966V68.9201ZM109.997 68.121V66.8868H113.569V68.121H109.997ZM113.541 65.768H114.591V61H113.541V65.768Z" fill="white"/>
<path d="M123.553 64.2497H115.828V65.0311H119.156V65.6349H116.738V66.3807H121.566V66.8957H116.747V68.9467H122.822V68.192H117.769V67.606H122.587V65.6349H120.197V65.0311H123.553V64.2497ZM116.803 63.7436H122.559V61.2397H116.803V63.7436ZM117.825 62.9711V62.0122H121.519V62.9711H117.825Z" fill="white"/>
<path d="M132 62.1365H130.809V61H129.769V65.8479H130.809V64.6493H132V63.8235H130.809V62.9534H132V62.1365ZM124.444 62.2697H127.294V63.0511H124.453V65.4484H125.147C126.82 65.4528 127.927 65.4084 129.188 65.1909L129.075 64.4007C127.922 64.5827 126.928 64.6315 125.494 64.6404V63.7969H128.316V61.4883H124.444V62.2697ZM125.175 67.5172C125.17 68.4584 126.267 69 128.044 69C129.792 69 130.889 68.4584 130.894 67.5172C130.889 66.5716 129.792 66.0033 128.044 65.9989C126.267 66.0033 125.17 66.5716 125.175 67.5172ZM126.197 67.5172C126.192 67.0333 126.858 66.7714 128.044 66.7714C129.211 66.7714 129.862 67.0333 129.862 67.5172C129.862 67.9967 129.211 68.2586 128.044 68.2542C126.858 68.2586 126.192 67.9967 126.197 67.5172Z" fill="white"/>
<path d="M66.0317 136.776H71.3391V135.49H67.9415V135.431L69.3027 133.921C70.8063 132.335 71.2178 131.556 71.223 130.595C71.2178 129.162 70.1679 128.118 68.6063 128.118C67.0816 128.118 65.9947 129.168 66 130.784H67.3084C67.3031 129.917 67.8096 129.368 68.5957 129.368C69.3396 129.368 69.9041 129.87 69.9041 130.666C69.9041 131.385 69.5031 131.893 68.7329 132.754L66.0317 135.667V136.776Z" fill="white"/>
<path d="M75.3592 136.894C77.1952 136.894 78.2926 135.307 78.2926 132.506C78.2926 129.722 77.1899 128.118 75.3592 128.118C73.5285 128.118 72.4206 129.722 72.4259 132.506C72.4206 135.301 73.518 136.894 75.3592 136.894ZM73.8082 132.506C73.8134 130.471 74.4043 129.398 75.3592 129.392C76.3142 129.398 76.905 130.471 76.9103 132.506C76.9103 134.558 76.3142 135.602 75.3592 135.608C74.3991 135.602 73.8082 134.558 73.8082 132.506Z" fill="white"/>
<path d="M81.3209 132.4C82.4024 132.406 83.0038 131.515 83.0091 130.194C83.0038 128.896 82.4235 128 81.3209 128C80.2604 128 79.6379 128.896 79.6432 130.194C79.6379 131.503 80.2341 132.406 81.3209 132.4ZM80.6139 130.194C80.6192 129.457 80.8566 128.944 81.3209 128.944C81.8168 128.938 82.0278 129.451 82.0278 130.194C82.0278 130.961 81.801 131.456 81.3209 131.456C80.8566 131.456 80.6192 130.961 80.6139 130.194ZM80.6245 136.776H81.6902L86.9448 128.236H85.8791L80.6245 136.776ZM84.6341 134.806C84.6288 136.104 85.2249 137.006 86.3118 137C87.3933 137.006 87.9947 136.115 88 134.806C87.9947 133.503 87.4091 132.6 86.3118 132.6C85.2513 132.6 84.6288 133.503 84.6341 134.806ZM85.6048 134.806C85.6101 134.057 85.8475 133.55 86.3118 133.544C86.8077 133.538 87.0187 134.051 87.0187 134.806C87.0187 135.561 86.7918 136.062 86.3118 136.056C85.8475 136.062 85.6101 135.561 85.6048 134.806Z" fill="white"/>
<path d="M114.846 80.1835H113.676L112 81.2477V82.3394L113.582 81.3486H113.619V86.8257H114.846V80.1835Z" fill="white"/>
<path d="M118.899 86.9174C120.363 86.9174 121.384 85.9679 121.379 84.6422C121.384 83.3624 120.448 82.4449 119.189 82.4404C118.632 82.4449 118.14 82.656 117.878 82.9449H117.813L118.019 81.1835H121.023V80.1835H117.017L116.605 83.9449H117.738C117.949 83.555 118.332 83.3715 118.861 83.3761C119.643 83.3807 120.204 83.9174 120.2 84.6789C120.204 85.4128 119.657 85.9495 118.899 85.9541C118.257 85.9495 117.738 85.5642 117.7 85.0275H116.512C116.549 86.1238 117.546 86.9174 118.899 86.9174Z" fill="white"/>
<path d="M124.075 83.422C125.034 83.4266 125.568 82.7339 125.573 81.7064C125.568 80.6972 125.053 80 124.075 80C123.134 80 122.582 80.6972 122.587 81.7064C122.582 82.7248 123.111 83.4266 124.075 83.422ZM123.448 81.7064C123.452 81.133 123.663 80.7339 124.075 80.7339C124.515 80.7294 124.702 81.1284 124.702 81.7064C124.702 82.3027 124.501 82.6881 124.075 82.6881C123.663 82.6881 123.452 82.3027 123.448 81.7064ZM123.457 86.8257H124.402L129.064 80.1835H128.119L123.457 86.8257ZM127.014 85.2936C127.009 86.3027 127.538 87.0046 128.502 87C129.462 87.0046 129.995 86.3119 130 85.2936C129.995 84.2798 129.476 83.578 128.502 83.578C127.562 83.578 127.009 84.2798 127.014 85.2936ZM127.875 85.2936C127.88 84.711 128.09 84.3165 128.502 84.3119C128.942 84.3073 129.129 84.7064 129.129 85.2936C129.129 85.8807 128.928 86.2706 128.502 86.266C128.09 86.2706 127.88 85.8807 127.875 85.2936Z" fill="white"/>
<path d="M202 133.385H205.774V134.801H207.108V133.385H208.129V132.263H207.108V127.21H205.366L202 132.295V133.385ZM203.43 132.263V132.211L205.71 128.761H205.796V132.263H203.43Z" fill="white"/>
<path d="M212.118 134.906C213.989 134.906 215.108 133.495 215.108 131.005C215.108 128.531 213.984 127.105 212.118 127.105C210.253 127.105 209.124 128.531 209.129 131.005C209.124 133.49 210.242 134.906 212.118 134.906ZM210.538 131.005C210.543 129.197 211.145 128.242 212.118 128.237C213.091 128.242 213.694 129.197 213.699 131.005C213.699 132.83 213.091 133.758 212.118 133.763C211.14 133.758 210.538 132.83 210.538 131.005Z" fill="white"/>
<path d="M218.194 130.911C219.296 130.916 219.909 130.124 219.914 128.95C219.909 127.797 219.317 127 218.194 127C217.113 127 216.478 127.797 216.484 128.95C216.478 130.114 217.086 130.916 218.194 130.911ZM217.473 128.95C217.478 128.295 217.72 127.839 218.194 127.839C218.699 127.834 218.914 128.29 218.914 128.95C218.914 129.632 218.683 130.072 218.194 130.072C217.72 130.072 217.478 129.632 217.473 128.95ZM217.484 134.801H218.57L223.925 127.21H222.839L217.484 134.801ZM221.57 133.05C221.565 134.203 222.172 135.005 223.28 135C224.382 135.005 224.995 134.214 225 133.05C224.995 131.891 224.398 131.089 223.28 131.089C222.199 131.089 221.565 131.891 221.57 133.05ZM222.559 133.05C222.565 132.384 222.806 131.933 223.28 131.928C223.785 131.923 224 132.379 224 133.05C224 133.721 223.769 134.166 223.28 134.161C222.806 134.166 222.565 133.721 222.559 133.05Z" fill="white"/>
<path d="M111.036 216.776H117.132V215.49H113.23V215.431L114.793 213.921C116.52 212.335 116.993 211.556 116.999 210.595C116.993 209.162 115.787 208.118 113.993 208.118C112.242 208.118 110.994 209.168 111 210.784H112.503C112.497 209.917 113.078 209.368 113.981 209.368C114.835 209.368 115.484 209.87 115.484 210.666C115.484 211.385 115.023 211.893 114.139 212.754L111.036 215.667V216.776Z" fill="white"/>
<path d="M121.628 216.894C123.524 216.894 124.845 215.673 124.839 213.969C124.845 212.323 123.633 211.144 122.003 211.138C121.282 211.144 120.646 211.415 120.307 211.786H120.222L120.489 209.522H124.379V208.236H119.192L118.659 213.072H120.125C120.398 212.571 120.895 212.335 121.579 212.341C122.591 212.347 123.318 213.037 123.312 214.016C123.318 214.959 122.609 215.649 121.628 215.655C120.798 215.649 120.125 215.154 120.077 214.464H118.538C118.586 215.873 119.877 216.894 121.628 216.894Z" fill="white"/>
<path d="M128.329 212.4C129.571 212.406 130.262 211.515 130.268 210.194C130.262 208.896 129.595 208 128.329 208C127.111 208 126.396 208.896 126.402 210.194C126.396 211.503 127.081 212.406 128.329 212.4ZM127.517 210.194C127.523 209.457 127.796 208.944 128.329 208.944C128.899 208.938 129.141 209.451 129.141 210.194C129.141 210.961 128.881 211.456 128.329 211.456C127.796 211.456 127.523 210.961 127.517 210.194ZM127.529 216.776H128.753L134.788 208.236H133.564L127.529 216.776ZM132.134 214.806C132.128 216.104 132.813 217.006 134.061 217C135.303 217.006 135.994 216.115 136 214.806C135.994 213.503 135.321 212.6 134.061 212.6C132.843 212.6 132.128 213.503 132.134 214.806ZM133.249 214.806C133.255 214.057 133.528 213.55 134.061 213.544C134.631 213.538 134.873 214.051 134.873 214.806C134.873 215.561 134.612 216.062 134.061 216.056C133.528 216.062 133.255 215.561 133.249 214.806Z" fill="white"/>
<defs>
<linearGradient id="paint0_linear_241_136" x1="203.517" y1="3.72983" x2="203.517" y2="233.783" gradientUnits="userSpaceOnUse">
<stop stop-color="#95CD9A"/>
<stop offset="0.53" stop-color="#88BFAA"/>
<stop offset="1" stop-color="#00A9AC"/>
</linearGradient>
</defs>
</svg>
